<svg version="1.2" baseProfile="tiny-ps" xmlns="http://www.w3.org/2000/svg" viewBox="0 0 30 30" width="30" height="30">
	<title>product</title>
	<style>
		tspan { white-space:pre }
		.shp0 { fill: #f2f3f7;stroke: #f2f3f7;stroke-width: 0.2 } 
	</style>
	<path id="path4511" fill-rule="evenodd" class="shp0" d="M14.17 1.64C14.18 1.64 14.2 1.64 14.22 1.64C14.23 1.64 14.24 1.64 14.25 1.64C14.26 1.64 14.26 1.64 14.27 1.64C14.28 1.65 14.29 1.65 14.3 1.65C14.3 1.65 14.31 1.65 14.31 1.66C14.33 1.66 14.34 1.66 14.36 1.67C14.36 1.67 14.36 1.67 14.36 1.67C14.37 1.67 14.38 1.68 14.39 1.68L25.96 6.63C26.2 6.67 26.38 6.88 26.38 7.13L26.37 22.13C26.38 22.13 26.38 22.13 26.37 22.14C26.38 22.14 26.38 22.15 26.38 22.16C26.37 22.17 26.37 22.18 26.37 22.18C26.37 22.19 26.37 22.2 26.37 22.21C26.34 22.39 26.23 22.54 26.06 22.61L14.47 27.56C14.4 27.61 14.31 27.64 14.22 27.64C14.1 27.66 13.98 27.62 13.88 27.55L2.31 22.61C2.2 22.56 2.11 22.48 2.06 22.37C2.05 22.36 2.05 22.35 2.04 22.34C2.04 22.34 2.04 22.34 2.04 22.34C2.01 22.27 2 22.2 2 22.13L2 7.13C2 6.88 2.18 6.66 2.42 6.63L13.98 1.68C14.03 1.66 14.09 1.64 14.15 1.64C14.15 1.64 14.16 1.64 14.16 1.64C14.16 1.64 14.16 1.64 14.17 1.64ZM3.77 7.14L6.22 8.19C6.23 8.18 6.24 8.18 6.25 8.17L16.64 3.73L14.19 2.68L3.77 7.14ZM7 8.94L7 14.83L8.28 14.19C8.5 14.08 8.78 14.15 8.92 14.36L10 15.99L10 10.64C10 10.62 10 10.6 10 10.58C9.98 10.36 10.1 10.16 10.3 10.07L20.88 5.55L17.91 4.27L7 8.94ZM22.16 6.09C22.15 6.09 22.14 6.1 22.13 6.1L11.74 10.55L14.19 11.59L24.61 7.14C24.61 7.14 22.16 6.09 22.16 6.09ZM3 21.81L13.69 26.38L13.69 12.47L11 11.32L11 17.58C11.03 17.82 10.89 18.05 10.65 18.12C10.65 18.12 10.64 18.12 10.64 18.13C10.63 18.13 10.62 18.13 10.61 18.13C10.59 18.14 10.57 18.14 10.56 18.14C10.54 18.15 10.52 18.15 10.51 18.15C10.49 18.15 10.47 18.15 10.46 18.14C10.42 18.14 10.39 18.14 10.36 18.13C10.36 18.13 10.36 18.12 10.36 18.12C10.34 18.12 10.33 18.11 10.31 18.11C10.2 18.06 10.11 17.98 10.06 17.88L8.33 15.28L6.72 16.09C6.57 16.17 6.39 16.16 6.24 16.07C6.09 15.97 6 15.81 6 15.64L6 9.18L3 7.9L3 21.81ZM14.69 12.47L14.69 26.38L25.38 21.81L25.38 7.9L14.69 12.47ZM19.61 19.78C19.67 20.02 19.54 20.27 19.31 20.35L16.39 21.6C16.14 21.71 15.84 21.59 15.73 21.34C15.63 21.08 15.74 20.79 16 20.68L17.57 20.01L18.91 19.43C18.97 19.41 19.03 19.39 19.09 19.39C19.1 19.39 19.1 19.39 19.1 19.39C19.34 19.38 19.56 19.54 19.61 19.78ZM22.52 20.53C22.57 20.77 22.45 21.01 22.22 21.1L19.31 22.35L16.39 23.6C16.14 23.71 15.84 23.59 15.73 23.33C15.63 23.08 15.74 22.79 16 22.68L18.91 21.43L21.83 20.18C21.89 20.16 21.95 20.14 22.01 20.14C22.25 20.13 22.47 20.29 22.52 20.53Z" />
</svg>